<svg width="20" height="17" fill="none" xmlns="http://www.w3.org/2000/svg"><path fill-rule="evenodd" clip-rule="evenodd" d="M.545.063C.282.158.107.33.041.555.006.68-.007 3.195.003 8.188l.016 7.448.109.147c.06.08.188.193.285.25.174.102.27.103 7.019.103h6.842l.191-.118a.904.904 0 00.298-.34c.1-.206.108-.313.107-1.437-.001-1.072-.013-1.24-.098-1.427-.267-.589-1.12-.615-1.443-.044-.105.185-.116.274-.116.969l-.001.764H1.652V1.647h12.633l.171-.116c.241-.164.366-.35.399-.598.038-.287-.134-.641-.39-.8l-.19-.119L7.51.003c-5.643-.01-6.8 0-6.965.06zm17.15 2.263c-.358.052-.674.175-.667.26.008.092 1.422 3.634 1.473 3.692.055.062.561-.19.81-.403.847-.724.925-2.084.168-2.906a2.014 2.014 0 00-1.783-.643zM11.56 4.702L6.926 6.557l-.953 1.457c-.523.802-.952 1.476-.951 1.498 0 .023.772.22 1.715.44l1.714.4 4.592-1.836c2.526-1.01 4.612-1.856 4.635-1.88.037-.036-1.366-3.655-1.454-3.753-.017-.02-2.117.8-4.665 1.82z" fill="#ACACAC"/></svg>