<svg width="17" height="16" fill="none" xmlns="http://www.w3.org/2000/svg"><path d="M9.4 2.556c0 .859-1.88 1.555-4.2 1.555-2.32 0-4.2-.696-4.2-1.555m8.4 0C9.4 1.696 7.52 1 5.2 1 2.88 1 1 1.696 1 2.556m8.4 0v1.166M1 2.556v9.333c0 .859 1.88 1.555 4.2 1.555m0-6.222c-.129 0-.256-.002-.382-.006C2.678 7.144 1 6.478 1 5.666m4.2 4.667c-2.32 0-4.2-.696-4.2-1.555M16.273 7.61c0 .86-1.88 1.556-4.2 1.556-2.32 0-4.2-.697-4.2-1.556m8.4 0c0-.859-1.88-1.555-4.2-1.555-2.32 0-4.2.696-4.2 1.555m8.4 0v5.833c0 .86-1.88 1.556-4.2 1.556-2.32 0-4.2-.696-4.2-1.556V7.611m8.4 2.917c0 .859-1.88 1.555-4.2 1.555-2.32 0-4.2-.696-4.2-1.555" stroke="url(#paint0_linear_8_679)" stroke-width="1.273" stroke-linecap="round" stroke-linejoin="round"/><defs><linearGradient id="paint0_linear_8_679" x1="1" y1="8" x2="16.273" y2="8" gradientUnits="userSpaceOnUse"><stop stop-color="#C262ED"/><stop offset="1" stop-color="#590FB8"/></linearGradient></defs></svg>