<svg width="19" height="19" fill="none" xmlns="http://www.w3.org/2000/svg"><path fill-rule="evenodd" clip-rule="evenodd" d="M2.92.06C2.81.118 1.376 1.62.357 2.75c-.327.363-.399.528-.335.766a.685.685 0 00.413.417c.07.02.533.037 1.028.037h.901v11.068h-.9c-.496 0-.959.017-1.029.037a.688.688 0 00-.413.417c-.061.23.01.404.298.727.514.578 2.437 2.623 2.532 2.692.139.102.39.119.561.037.21-.1 2.837-2.943 2.893-3.13.078-.26-.044-.57-.272-.694-.107-.059-.243-.069-1.098-.079l-.974-.011V3.974l.974-.011c.956-.011.978-.013 1.12-.1a.593.593 0 00.232-.721C6.21 2.956 3.58.139 3.412.062A.522.522 0 002.921.06zm6.398.752c-.313.075-.603.43-.603.737 0 .343.24.688.543.778.22.066 8.2.066 8.422 0 .212-.063.442-.302.503-.522a.798.798 0 00-.36-.907l-.176-.104-4.104-.006C11.286.785 9.384.796 9.318.812zm-.14 7.981a.82.82 0 00-.463.711c0 .289.196.59.464.71.14.065.363.068 4.29.068 3.926 0 4.149-.003 4.29-.067a.82.82 0 00.463-.71.82.82 0 00-.463-.712c-.141-.064-.364-.067-4.29-.067-3.927 0-4.15.003-4.29.067zm.057 7.891a.895.895 0 00-.28.192.783.783 0 00.16 1.235l.175.103h8.357l.176-.103a.798.798 0 00.36-.908c-.061-.22-.291-.459-.503-.522-.208-.062-8.25-.06-8.445.003z" fill="url(#paint0_linear_1_2750)"/><defs><linearGradient id="paint0_linear_1_2750" x1="0" y1="9.5" x2="18.223" y2="9.5" gradientUnits="userSpaceOnUse"><stop stop-color="#C262ED"/><stop offset="1" stop-color="#590FB8"/></linearGradient></defs></svg>