<svg width="15" height="21" fill="none" xmlns="http://www.w3.org/2000/svg"><path fill-rule="evenodd" clip-rule="evenodd" d="M6.039.04c-.015.024-.004.235.024.47.136 1.151-.086 2.184-.688 3.202-.393.665-.74 1.093-1.966 2.424-.86.934-1.185 1.306-1.494 1.714C.883 9.21.337 10.422.077 11.929c-.103.6-.103 2.172.001 2.733.589 3.178 3.022 5.58 6.207 6.126.508.087 1.811.098 2.264.019 1.167-.205 2.095-.569 3.028-1.19 1.837-1.22 3.101-3.267 3.374-5.464.138-1.11-.02-2.543-.411-3.734-.327-.995-1.191-2.529-1.425-2.529-.098 0-.1.008-.124.429-.03.52-.049.597-.231.95a1.752 1.752 0 01-2.856.379 2.565 2.565 0 01-.361-.5c-.11-.223-.117-.269-.117-.748 0-.42.025-.633.141-1.203.125-.615.141-.763.139-1.306a5.937 5.937 0 00-.669-2.814 8.492 8.492 0 00-.56-.955C7.984 1.432 7.19.669 6.444.165 6.19-.005 6.087-.038 6.04.04zm-.04 10.695c-1.649 1.683-2.264 2.962-2.266 4.707 0 .466.017.635.098.954.177.699.458 1.208.94 1.707.506.525 1.12.89 1.8 1.071.476.128 1.29.129 1.794.003a3.899 3.899 0 002.592-2.209c.312-.732.38-1.616.185-2.383-.108-.422-.191-.596-.285-.596-.03 0-.142.071-.248.159-.94.776-2.363.7-3.223-.175-.465-.472-.674-.98-.759-1.85-.038-.395-.02-1.477.03-1.648.02-.072-.082-.198-.161-.198-.027 0-.25.206-.498.459z" fill="url(#paint0_linear_12_104)"/><defs><linearGradient id="paint0_linear_12_104" x1="0" y1="10.43" x2="15" y2="10.43" gradientUnits="userSpaceOnUse"><stop stop-color="#C262ED"/><stop offset="1" stop-color="#590FB8"/></linearGradient></defs></svg>