<svg width="21" height="20" fill="none" xmlns="http://www.w3.org/2000/svg"><path d="M11.45 3c0 1.105-2.34 2-5.225 2C3.339 5 1 4.105 1 3m10.45 0c0-1.105-2.34-2-5.225-2C3.339 1 1 1.895 1 3m10.45 0v1.5M1 3v12c0 1.105 2.34 2 5.225 2m0-8c-.16 0-.319-.003-.475-.008C3.087 8.9 1 8.043 1 7m5.225 6C3.339 13 1 12.105 1 11m19-1.5c0 1.105-2.34 2-5.225 2-2.886 0-5.225-.895-5.225-2M20 9.5c0-1.105-2.34-2-5.225-2-2.886 0-5.225.895-5.225 2M20 9.5V17c0 1.105-2.34 2-5.225 2-2.886 0-5.225-.895-5.225-2V9.5M20 13.25c0 1.105-2.34 2-5.225 2-2.886 0-5.225-.895-5.225-2" stroke="url(#paint0_linear_72_89)" stroke-width="1.273" stroke-linecap="round" stroke-linejoin="round"/><defs><linearGradient id="paint0_linear_72_89" x1="1" y1="10" x2="20" y2="10" gradientUnits="userSpaceOnUse"><stop stop-color="#C262ED"/><stop offset="1" stop-color="#590FB8"/></linearGradient></defs></svg>