<svg width="16" height="16" fill="none" xmlns="http://www.w3.org/2000/svg"><path fill-rule="evenodd" clip-rule="evenodd" d="M7.373.01C6.558.096 5.74.284 5.108.53A8.052 8.052 0 00.252 5.97C.054 6.726 0 7.167 0 8.009c0 .841.054 1.282.252 2.039.672 2.577 2.649 4.701 5.161 5.547.895.302 1.594.413 2.587.413.816 0 1.264-.052 1.983-.233 2.79-.702 5.036-2.933 5.765-5.727.197-.757.252-1.198.252-2.04 0-.841-.055-1.282-.252-2.04-.804-3.083-3.396-5.407-6.566-5.89C8.818.023 7.666-.021 7.373.01zm.072 2.292a7.08 7.08 0 00-1.278.286 5.742 5.742 0 00-3.795 4.356c-.115.576-.115 1.553 0 2.129a5.71 5.71 0 001.574 2.966 5.71 5.71 0 002.98 1.594c.581.12 1.55.12 2.138.003a5.73 5.73 0 002.96-1.566 5.75 5.75 0 001.604-2.997c.115-.576.115-1.553 0-2.13a5.75 5.75 0 00-1.604-2.997 5.663 5.663 0 00-2.932-1.56c-.35-.07-1.317-.12-1.647-.084zM7.402 3.46a4.908 4.908 0 00-1.734.612 4.07 4.07 0 00-.976.785 4.522 4.522 0 00-1.219 2.475c-.214 1.46.25 2.852 1.3 3.902 1.048 1.048 2.45 1.515 3.898 1.3a4.454 4.454 0 002.556-1.3c1.048-1.047 1.515-2.45 1.3-3.898a4.454 4.454 0 00-1.3-2.556 4.47 4.47 0 00-2.26-1.252c-.35-.08-1.217-.118-1.565-.068zm.334 1.733c-.255.095-.382.236-.647.72-.351.641-.532.827-1.113 1.143-.553.301-.647.377-.756.61a.76.76 0 000 .683c.109.233.203.308.756.61.568.308.768.509 1.072 1.073.273.506.346.602.55.722.138.081.212.1.402.1.19 0 .264-.019.402-.1.205-.12.278-.217.55-.724.29-.542.536-.785 1.102-1.09.518-.279.618-.36.726-.591a.76.76 0 000-.683c-.108-.232-.208-.313-.726-.592-.566-.305-.812-.548-1.102-1.09a6.504 6.504 0 00-.296-.51c-.193-.26-.621-.392-.92-.28z" fill="url(#paint0_linear_12_105)"/><defs><linearGradient id="paint0_linear_12_105" x1="0" y1="8.004" x2="16" y2="8.004" gradientUnits="userSpaceOnUse"><stop stop-color="#C262ED"/><stop offset="1" stop-color="#590FB8"/></linearGradient></defs></svg>