<svg width="18" height="18" fill="none" xmlns="http://www.w3.org/2000/svg"><path fill-rule="evenodd" clip-rule="evenodd" d="M13.526.036c-.239.08-.354.154-.521.34-.273.303-.353.72-.22 1.128.058.173.132.261.711.847.356.36.647.664.647.678 0 .013-2.702.024-6.005.024-5.926 0-6.007.001-6.193.071-.419.157-.707.57-.709 1.017-.002.474.215.824.641 1.033l.235.116 6.022.01 6.023.009-.622.625c-.506.509-.639.663-.717.834a1.12 1.12 0 00.543 1.47c.136.067.222.081.482.081.276 0 .34-.013.493-.094.127-.068.647-.566 1.854-1.779C18.06 4.57 18 4.645 18 4.163c0-.481.058-.407-1.81-2.282C14.337.02 14.342.025 13.904 0a1.217 1.217 0 00-.378.035zm-9.669 9.67c-.26.086-.467.274-2.047 1.86C-.06 13.443 0 13.368 0 13.85c0 .48-.058.407 1.81 2.282 1.904 1.91 1.86 1.875 2.347 1.873.368-.001.588-.096.825-.355a1.12 1.12 0 00.232-1.141c-.057-.174-.13-.262-.71-.847-.356-.36-.647-.665-.647-.678 0-.013 2.588-.028 5.75-.033l5.751-.01.159-.082a1.29 1.29 0 00.522-.516c.08-.153.093-.218.094-.493 0-.26-.015-.347-.081-.483a1.248 1.248 0 00-.565-.551l-.2-.094-5.722-.009-5.722-.01.622-.624c.506-.51.639-.664.717-.835.25-.546.012-1.2-.532-1.463-.184-.089-.624-.13-.793-.075z" fill="url(#paint0_linear_12_103)"/><defs><linearGradient id="paint0_linear_12_103" x1="0" y1="9.003" x2="18" y2="9.003" gradientUnits="userSpaceOnUse"><stop stop-color="#C262ED"/><stop offset="1" stop-color="#590FB8"/></linearGradient></defs></svg>