<svg width="20" height="22" fill="none" xmlns="http://www.w3.org/2000/svg"><path fill-rule="evenodd" clip-rule="evenodd" d="M7.935 19.686L7.35 18.37a2.426 2.426 0 00-2.474-1.429l-1.43.152a2.214 2.214 0 01-2.023-3.502l.847-1.163a2.429 2.429 0 000-2.858l-.847-1.163a2.211 2.211 0 012.023-3.502l1.434.152a2.433 2.433 0 001.47-.312 2.426 2.426 0 001-1.117l.585-1.315a2.212 2.212 0 014.044 0l.589 1.315c.207.468.557.86 1 1.117.445.256.96.365 1.47.312l1.43-.152a2.212 2.212 0 012.022 3.502l-.846 1.163a2.429 2.429 0 00-.466 1.43 2.428 2.428 0 00.46 1.434l.847 1.164a2.21 2.21 0 01-.786 3.273 2.212 2.212 0 01-1.236.229l-1.43-.152a2.426 2.426 0 00-2.47 1.423l-.585 1.315a2.212 2.212 0 01-4.044 0zM10 15a4 4 0 100-8 4 4 0 000 8z" fill="url(#paint0_linear_1_2741)"/><path d="M7.35 18.371l-.457.203.457-.203zm.585 1.315l.457-.203-.457.203zm-1.59-2.432l.25-.433-.25.433zm-1.47-.312l-.052-.497.053.497zm-1.43.152l.053.498-.052-.498zm-1.236-.229l.227-.445-.227.445zM1.297 16l.433-.25-.433.25zm-.294-1.223l-.5-.026.5.026zm.42-1.185l.405.294-.405-.294zm.847-1.163l.404.294-.404-.294zM2.735 11h-.5.5zM2.27 9.571l.405-.294-.405.294zm-.847-1.163l.405-.294-.405.294zm-.42-1.185l-.5.026.5-.026zM1.297 6l.433.25L1.297 6zm2.149-1.094l.052-.498-.052.498zm1.434.152l-.053.497.053-.497zm1.47-.312l.25.433.001-.001-.25-.432zm1-1.117l-.457-.203.457.203zm.585-1.315l.456.204-.456-.204zm.816-.957l.272.42-.272-.42zM9.957 1v.5V1zm1.206.357l.272-.419-.272.42zm.816.957l-.457.203v.002l.457-.205zm.589 1.315l.457-.202v-.003l-.457.205zm1 1.117l-.251.432h.001l.25-.432zm1.47.312l.052.497-.052-.497zm1.43-.152l-.053-.498.053.498zM18.617 6l-.433.25.433-.25zm-.127 2.408l-.404-.294.404.294zm-.846 1.163l-.405-.294.404.294zM17.178 11l.5.002V11h-.5zm.46 1.434l-.405.293v.002l.405-.295zm.847 1.164l-.405.294.405-.294zm.42 1.185l.5-.026-.5.026zm-.294 1.223l-.432-.25.432.25zM16.464 17.1l-.053.497.052-.497zm-1.43-.152l.052-.497-.053.497zm-1.47.312l-.25-.433h-.001l.25.433zm-1 1.111l-.457-.204v.001l.457.203zm-.585 1.315l-.457-.204.457.204zM9.957 21v-.5.5zm-1.206-.357l.272-.42-.272.42zm-1.858-2.069l.585 1.315.913-.407-.584-1.314-.914.406zm-.797-.887c.353.204.632.515.797.887l.914-.406a2.925 2.925 0 00-1.211-1.347l-.5.866zm-1.168-.248c.406-.042.814.045 1.168.249l.5-.867a2.933 2.933 0 00-1.773-.376l.105.994zm-1.43.153l1.43-.153-.105-.994-1.43.152.106.995zm-1.516-.281c.468.238.994.335 1.516.28l-.105-.994a1.715 1.715 0 01-.957-.177l-.454.89zM.864 16.25c.262.453.65.822 1.118 1.06l.454-.891a1.715 1.715 0 01-.706-.67l-.866.5zm-.36-1.5a2.71 2.71 0 00.36 1.5l.866-.501a1.711 1.711 0 01-.228-.946l-.998-.053zm.515-1.453a2.71 2.71 0 00-.515 1.453l.998.053c.018-.331.13-.65.326-.918l-.809-.588zm.847-1.163l-.847 1.163.809.588.846-1.163-.808-.588zM2.235 11c0 .408-.13.805-.37 1.135l.81.588c.364-.5.56-1.104.56-1.723h-1zm-.37-1.135c.24.33.37.727.37 1.135h1c0-.619-.196-1.222-.56-1.723l-.81.588zM1.02 8.702l.847 1.163.808-.588-.846-1.163-.809.588zM.504 7.249c.027.524.206 1.029.515 1.453l.809-.588a1.711 1.711 0 01-.326-.918l-.998.053zm.36-1.5a2.711 2.711 0 00-.36 1.5l.998-.053c-.017-.33.062-.659.228-.946l-.866-.5zm1.118-1.06A2.712 2.712 0 00.864 5.75l.866.5c.165-.287.41-.52.706-.67l-.454-.891zm1.516-.28a2.712 2.712 0 00-1.516.28l.454.89c.295-.15.628-.211.957-.176l.105-.995zm1.435.152l-1.435-.153-.105.995 1.434.152.106-.994zM6.1 4.312a1.936 1.936 0 01-1.168.249l-.104.994A2.933 2.933 0 006.6 5.179l-.5-.867zm.793-.885a1.926 1.926 0 01-.794.886l.502.865a2.92 2.92 0 001.206-1.347l-.914-.404zm.585-1.316l-.585 1.315.914.406.584-1.314-.913-.407zm1-1.173a2.71 2.71 0 00-1 1.174l.914.405c.134-.302.353-.56.631-.74L8.478.938zM9.957.5c-.525 0-1.039.152-1.479.438l.545.839a1.71 1.71 0 01.934-.277v-1zm1.478.438A2.712 2.712 0 009.957.5v1c.331 0 .655.096.933.277l.545-.839zm1.001 1.174a2.712 2.712 0 00-1-1.174l-.546.839c.278.18.498.438.632.74l.914-.405zm.588 1.312l-.589-1.314-.912.409.589 1.314.912-.409zm.795.89a1.926 1.926 0 01-.794-.887l-.914.404c.25.565.672 1.037 1.206 1.347l.502-.865zm1.167.247a1.933 1.933 0 01-1.168-.249l-.5.867a2.94 2.94 0 001.772.376l-.104-.994zm1.429-.153l-1.43.153.106.994 1.43-.152-.106-.995zm1.517.28a2.712 2.712 0 00-1.517-.28l.105.995c.33-.035.663.026.958.177l.453-.891zM19.05 5.75a2.713 2.713 0 00-1.12-1.06l-.453.89c.295.151.54.384.706.67l.866-.499zm.36 1.499a2.71 2.71 0 00-.36-1.5l-.866.501c.166.287.245.616.227.946l.999.053zm-.516 1.453a2.71 2.71 0 00.516-1.453l-.999-.053a1.71 1.71 0 01-.325.918l.808.588zm-.846 1.163l.846-1.163-.808-.588-.847 1.163.809.588zM17.679 11c0-.408.13-.805.369-1.135l-.809-.588c-.364.5-.56 1.104-.56 1.723h1zm.365 1.142a1.93 1.93 0 01-.365-1.14l-1-.005a2.926 2.926 0 00.555 1.73l.81-.585zm.846 1.162l-.847-1.164-.808.589.846 1.163.809-.588zm.515 1.453a2.711 2.711 0 00-.515-1.454l-.809.589c.195.268.308.586.326.917l.998-.052zm-.36 1.499c.263-.455.388-.975.36-1.5l-.998.053c.017.33-.062.66-.227.946l.865.5zm-1.118 1.06a2.712 2.712 0 001.118-1.06l-.866-.5c-.165.287-.41.52-.706.67l.454.89zm-1.516.281a2.713 2.713 0 001.516-.28l-.454-.891c-.295.15-.627.212-.957.177l-.105.994zm-1.43-.152l1.43.152.105-.994-1.43-.152-.106.994zm-1.168.248c.354-.204.762-.29 1.168-.248l.105-.994a2.934 2.934 0 00-1.772.376l.5.866zm-.793.882c.165-.37.443-.68.794-.882l-.501-.866a2.926 2.926 0 00-1.206 1.34l.913.408zm-.584 1.314l.584-1.315-.913-.406-.585 1.314.914.407zm-1 1.173a2.71 2.71 0 001-1.174l-.914-.405c-.134.302-.354.56-.632.74l.545.839zm-1.48.438c.526 0 1.04-.152 1.48-.438l-.546-.839a1.707 1.707 0 01-.933.277v1zm-1.478-.438c.44.286.954.438 1.479.438v-1a1.71 1.71 0 01-.934-.277l-.545.839zm-1-1.174c.213.48.56.888 1 1.174l.545-.839a1.712 1.712 0 01-.631-.74l-.914.405zM13.5 11a3.5 3.5 0 01-3.5 3.5v1a4.5 4.5 0 004.5-4.5h-1zM10 7.5a3.5 3.5 0 013.5 3.5h1A4.5 4.5 0 0010 6.5v1zM6.5 11A3.5 3.5 0 0110 7.5v-1A4.5 4.5 0 005.5 11h1zm3.5 3.5A3.5 3.5 0 016.5 11h-1a4.5 4.5 0 004.5 4.5v-1z" fill="#B86AF5"/><defs><linearGradient id="paint0_linear_1_2741" x1="1" y1="11" x2="18.914" y2="11" gradientUnits="userSpaceOnUse"><stop stop-color="#C262ED"/><stop offset="1" stop-color="#590FB8"/></linearGradient></defs></svg>