<svg width="18" height="20" fill="none" xmlns="http://www.w3.org/2000/svg"><path fill-rule="evenodd" clip-rule="evenodd" d="M6.935 18.686L6.35 17.37a2.426 2.426 0 00-2.474-1.429l-1.43.152a2.214 2.214 0 01-2.023-3.502l.847-1.163a2.429 2.429 0 000-2.858L.423 7.408a2.211 2.211 0 012.023-3.502l1.434.152a2.433 2.433 0 001.47-.312 2.426 2.426 0 001-1.117l.585-1.315a2.212 2.212 0 014.044 0l.589 1.315c.207.468.557.86 1 1.117.445.256.96.365 1.47.312l1.43-.152a2.212 2.212 0 012.022 3.502l-.846 1.163A2.429 2.429 0 0016.178 10a2.428 2.428 0 00.46 1.434l.847 1.164a2.21 2.21 0 01-.786 3.273 2.212 2.212 0 01-1.236.229l-1.43-.152a2.426 2.426 0 00-2.47 1.423l-.585 1.315a2.212 2.212 0 01-4.044 0zM9 14a4 4 0 100-8 4 4 0 000 8z" fill="#ACACAC"/></svg>